HIERARCHY
ROOT Hips
{
	OFFSET -0.179506 -22.333345 2.821913
	CHANNELS 6 Xposition Yposition Zposition Zrotation Yrotation Xrotation 
	JOINT LeftUpLeg
	{
		OFFSET 6.951974 -9.140623 -0.681533
		CHANNELS 3 Zrotation Yrotation Xrotation
		JOINT LeftLeg
		{
			OFFSET 3.427654 -37.519855 -0.449580
			CHANNELS 3 Zrotation Yrotation Xrotation
			JOINT LeftFoot
			{
				OFFSET -1.359570 -39.796059 -4.369333
				CHANNELS 3 Zrotation Yrotation Xrotation
				JOINT LeftToe
				{
					OFFSET 2.635814 -5.579078 11.928840
					CHANNELS 3 Zrotation Yrotation Xrotation
					End Site
					{
						OFFSET 0.000000 0.000000 0.000000
					}
				}
			}
		}
	}
	JOINT RightUpLeg
	{
		OFFSET -6.767048 -9.052170 -0.431982
		CHANNELS 3 Zrotation Yrotation Xrotation
		JOINT RightLeg
		{
			OFFSET -3.829005 -38.256897 -0.885003
			CHANNELS 3 Zrotation Yrotation Xrotation
			JOINT RightFoot
			{
				OFFSET 1.577377 -39.841461 -4.231180
				CHANNELS 3 Zrotation Yrotation Xrotation
				JOINT RightToe
				{
					OFFSET -2.537174 -4.814398 12.334795
					CHANNELS 3 Zrotation Yrotation Xrotation
					End Site
					{
						OFFSET 0.000000 0.000000 0.000000
					}
				}
			}
		}
	}
	JOINT Spine
	{
		OFFSET -0.253288 10.896323 -2.669631
		CHANNELS 3 Zrotation Yrotation Xrotation
		JOINT Spine1
		{
			OFFSET 0.548704 13.518043 0.109247
			CHANNELS 3 Zrotation Yrotation Xrotation
			JOINT Spine2
			{
				OFFSET 0.145701 5.292222 2.542457
				CHANNELS 3 Zrotation Yrotation Xrotation
				JOINT Neck
				{
					OFFSET -0.277840 21.387037 -4.285703
					CHANNELS 3 Zrotation Yrotation Xrotation
					JOINT Head
					{
						OFFSET 0.515184 6.496960 5.134897
						CHANNELS 3 Zrotation Yrotation Xrotation
						End Site
						{
							OFFSET 0.000000 0.000000 0.000000
						}
					}
				}
				JOINT LeftShoulder
				{
					OFFSET 7.884473 12.174932 -3.408961
					CHANNELS 3 Zrotation Yrotation Xrotation
					JOINT LeftArm
					{
						OFFSET 9.097692 3.046888 -0.886815
						CHANNELS 3 Zrotation Yrotation Xrotation
						JOINT LeftForeArm
						{
							OFFSET 25.961220 -1.277207 -2.745643
							CHANNELS 3 Zrotation Yrotation Xrotation
							JOINT LeftHand
							{
								OFFSET 24.923361 0.898606 -0.117091
								CHANNELS 3 Zrotation Yrotation Xrotation
								End Site
								{
									OFFSET 0.000000 0.000000 0.000000
								}
							}
						}
					}
				}
				JOINT RightShoulder
				{
					OFFSET -8.175920 11.883285 -3.861528
					CHANNELS 3 Zrotation Yrotation Xrotation
					JOINT RightArm
					{
						OFFSET -9.601238 3.255117 -0.914307
						CHANNELS 3 Zrotation Yrotation Xrotation
						JOINT RightForeArm
						{
							OFFSET -25.374195 -1.332924 -2.140099
							CHANNELS 3 Zrotation Yrotation Xrotation
							JOINT RightHand
							{
								OFFSET -25.529810 0.777228 -0.555919
								CHANNELS 3 Zrotation Yrotation Xrotation
								End Site
								{
									OFFSET 0.000000 0.000000 0.000000
								}
							}
						}
					}
				}
			}
		}
	}
}
MOTION
Frames: 15
Frame Time: 0.033333
20.398287 57.323399 96.136444 -61.060609 1.610232 83.714931 -1.757641 2.110290 8.297858 1.549663 1.967235 -4.951112 -3.649590 8.707412 -1.097650 nan nan nan -0.042883 -1.297094 5.832119 1.473517 1.738471 -0.129314 8.564405 0.564717 2.915072 nan nan nan -1.666113 0.837516 1.582689 2.380479 -1.346640 8.021517 1.923284 -1.957377 -1.458388 3.578929 -9.822055 6.072345 3.463649 -8.338579 0.718354 -21.726859 4.431837 1.542021 -58.621009 -17.343716 15.463956 31.374616 -62.622099 -52.454921 11.541789 -8.605928 -60.195782 20.591236 3.948868 -2.046308 56.557741 29.309202 21.750908 -8.408498 53.546954 -26.668367 -0.499150 9.398538 -49.138631 
20.405767 57.289581 96.074532 -60.948259 1.672778 83.768254 -1.683360 2.119487 8.205379 1.594946 1.971706 -4.948473 -3.827662 8.499991 -0.904758 nan nan nan 0.023325 -1.339689 5.738767 1.406319 1.549395 -0.095557 8.727776 0.669888 3.069692 nan nan nan -1.450546 0.792785 1.836168 2.200808 -1.322764 7.415373 1.902481 -1.941698 -1.040397 3.811784 -8.940784 6.035545 3.290734 -7.365053 0.703691 -21.354605 4.340628 1.558352 -58.961361 -17.299088 15.678488 31.451870 -62.460876 -51.440211 11.471715 -9.132221 -60.602104 20.071234 3.866045 -2.113207 57.176958 29.230463 22.037825 -9.027222 53.697990 -26.318480 -0.779805 9.172193 -49.962562 
20.413271 57.243275 96.044884 -60.870529 1.684127 83.821459 -1.708297 2.064086 8.149034 1.634846 1.931454 -4.959647 -3.910371 8.412497 -0.875816 nan nan nan -0.011606 -1.373654 5.639856 1.419082 1.454149 -0.027626 8.864643 0.707434 3.078972 nan nan nan -1.349567 0.800335 1.864146 2.100618 -1.333072 7.218030 1.933613 -1.907198 -0.808574 3.783776 -8.194201 6.092599 3.117113 -6.431506 0.431031 -21.162980 4.227499 1.560352 -59.180703 -17.285179 15.872614 31.473528 -62.519424 -51.209890 12.460731 -9.366792 -60.613466 19.769040 3.827683 -2.100269 57.358541 29.244059 22.143857 -9.404558 53.898478 -26.271534 -0.964451 8.983840 -50.219523 
20.424738 57.206032 96.021873 -60.781452 1.700246 83.906414 -1.656183 2.084921 7.993301 1.570577 1.907374 -4.850128 -4.057179 8.408971 -0.819076 nan nan nan -0.028149 -1.418348 5.504578 1.432824 1.387916 0.059461 8.842512 0.717641 3.047580 nan nan nan -1.281255 0.783640 1.897951 2.023538 -1.318267 7.029296 1.957067 -1.879122 -0.701417 3.738756 -7.359595 6.004310 2.978928 -5.591519 0.503418 -21.001482 4.134295 1.560247 -59.414249 -17.249924 15.877565 32.239622 -62.487801 -51.514148 12.765104 -9.136820 -60.319447 19.550306 3.728188 -2.102981 57.526127 29.259387 22.147843 -9.404537 53.992389 -25.930979 -0.940108 8.886194 -50.508312 
20.431343 57.182606 96.004387 -60.664221 1.720996 83.994275 -1.581110 2.146000 7.828612 1.520219 1.869513 -4.734553 -4.329543 8.409406 -0.733392 nan nan nan -0.048751 -1.488019 5.397804 1.471669 1.336074 0.105637 8.831442 0.739710 2.985689 nan nan nan -1.246594 0.769684 1.941173 1.969118 -1.333528 6.787976 1.953645 -1.817982 -0.612607 3.652144 -6.564351 5.873424 2.972493 -4.955455 0.802470 -20.770900 3.996906 1.641526 -59.737791 -17.229963 15.942036 32.477294 -62.496312 -51.550966 13.088133 -8.862381 -60.225215 19.399426 3.637726 -2.054507 57.728773 29.267102 22.100018 -9.508702 53.942874 -25.652118 -0.635032 8.985813 -50.531307 
20.437826 57.160194 95.992393 -60.506250 1.724225 84.104843 -1.602985 2.131213 7.663745 1.576549 1.843603 -4.655667 -4.366267 8.339236 -0.706112 nan nan nan -0.092804 -1.534106 5.290204 1.509979 1.297399 0.126556 8.919957 0.741381 2.978123 nan nan nan -1.224584 0.796668 1.906773 1.919822 -1.325827 6.626287 1.963899 -1.833102 -0.533491 3.566357 -5.919577 5.880221 2.994550 -4.311328 0.919381 -20.656152 3.832702 1.720106 -59.986967 -17.247340 15.981246 32.283117 -62.456109 -51.264862 12.502091 -8.747643 -60.479217 19.290970 3.583759 -1.989175 57.903062 29.274138 22.020766 -9.706597 53.816600 -25.527429 0.404420 9.242790 -50.386930 
20.439419 57.138641 95.988823 -60.368254 1.736039 84.177644 -1.594737 2.140595 7.601093 1.575877 1.753103 -4.700846 -4.156746 8.192310 -0.739170 nan nan nan -0.113891 -1.523396 5.198269 1.609794 1.257373 0.169561 8.942235 0.677910 2.898452 nan nan nan -1.183389 0.797749 1.988664 1.880544 -1.277933 6.451641 1.993106 -1.852733 -0.547305 3.582558 -5.315498 5.941153 2.922136 -3.633255 0.939811 -20.666414 3.752570 1.813196 -60.078960 -17.267120 15.918364 32.089589 -62.482280 -50.902028 12.522947 -8.710310 -60.513208 19.128655 3.510856 -1.801293 58.050459 29.187280 22.058114 -10.258544 54.048413 -25.790115 -0.187738 9.123156 -50.231933 
20.440865 57.134956 95.999283 -60.320261 1.746492 84.185807 -1.529577 2.136303 7.591753 1.458424 1.632439 -4.713975 -4.043964 8.094028 -0.785798 nan nan nan -0.092614 -1.520547 5.117568 1.625091 1.262783 0.289807 8.939930 0.641188 2.879712 nan nan nan -1.200876 0.835102 2.098368 1.895337 -1.239517 6.404953 2.037113 -1.800199 -0.611929 3.588373 -4.725518 5.856333 2.863197 -2.894511 1.081342 -20.804435 3.589480 1.826724 -60.057131 -17.260106 15.826795 32.310922 -62.355120 -51.027351 12.887985 -8.911693 -59.905251 19.108865 3.508349 -1.696734 58.021150 29.136752 21.979487 -10.899479 54.051293 -26.094272 0.475719 9.141847 -49.476402 
20.435337 57.126156 95.996437 -60.235218 1.750987 84.199145 -1.469417 2.177624 7.542343 1.349491 1.451993 -4.677103 -3.984583 8.067668 -0.825112 nan nan nan -0.094717 -1.526053 5.053924 1.644592 1.239091 0.408239 8.932325 0.562377 2.795687 nan nan nan -1.191409 0.807348 2.260455 1.863471 -1.183122 6.227977 2.061283 -1.753665 -0.652275 3.618265 -4.146317 5.766519 2.739059 -2.224689 1.287120 -20.863106 3.534986 1.900467 -60.023773 -17.270069 15.803763 32.328132 -62.437701 -51.018847 13.617031 -8.797368 -59.883388 19.132506 3.525215 -1.517551 57.938216 29.179019 21.903885 -10.793200 54.130849 -26.254666 -0.238189 9.227613 -50.278864 
20.450483 57.096920 95.988281 -60.064441 1.761620 84.246974 -1.477758 2.172101 7.453078 1.332509 1.313391 -4.637516 -3.925575 8.069546 -0.877619 nan nan nan -0.134217 -1.547037 4.959282 1.701445 1.192016 0.542141 8.928940 0.491444 2.661527 nan nan nan -1.124520 0.771819 2.370183 1.812946 -1.171462 6.054063 2.056277 -1.730503 -0.634625 3.649106 -3.518336 5.687057 2.639214 -1.611915 1.361778 -20.866915 3.481059 1.949463 -60.027299 -17.217418 15.863318 32.429673 -62.621250 -50.990078 13.880020 -8.462004 -60.314244 19.143724 3.433582 -1.423294 57.860961 29.177561 21.833424 -10.734326 54.317606 -26.203912 -0.990643 9.195645 -50.881649 
20.469013 57.062637 95.999474 -59.853747 1.745900 84.236630 -1.568198 2.072876 7.439282 1.389541 1.313968 -4.602649 -3.868570 8.010325 -0.899017 nan nan nan -0.213773 -1.621682 4.975763 1.699241 1.095091 0.574583 9.025959 0.481492 2.623490 nan nan nan -1.089069 0.838686 2.482154 1.773967 -1.238150 6.031300 2.023832 -1.725388 -0.664857 3.629833 -2.970437 5.601382 2.678322 -1.118080 1.410668 -20.797620 3.327596 1.943438 -60.133113 -17.101848 15.959881 32.843430 -62.607886 -51.277787 13.465898 -8.492835 -60.583202 19.110309 3.352212 -1.514662 57.980746 29.043776 21.815829 -11.396809 54.291772 -26.378881 0.084347 9.366853 -50.119504 
20.501768 57.037930 95.998215 -59.627297 1.804781 84.208519 -1.550992 1.933148 7.408226 1.412966 1.251529 -4.538005 -3.914122 7.964266 -0.956853 nan nan nan -0.190933 -1.612722 5.023496 1.701194 0.949907 0.541731 9.130012 0.346089 2.653897 nan nan nan -0.998083 0.876451 2.737115 1.748564 -1.232490 5.903512 2.052980 -1.792191 -0.728700 3.710641 -2.495758 5.487723 2.545717 -0.804796 1.495214 -20.812533 3.261899 2.052188 -60.175347 -17.193576 16.106461 32.923831 -62.656258 -51.347916 14.082473 -8.389233 -60.634639 19.005444 3.245985 -1.479389 57.941771 29.039998 21.902958 -10.989754 54.648628 -26.293062 -1.588024 9.102287 -51.681107 
20.522804 56.994286 95.993217 -59.408314 1.846724 84.233932 -1.547598 1.878172 7.320811 1.446923 1.147150 -4.440721 -4.036603 7.909861 -0.929161 nan nan nan -0.238361 -1.621211 4.994482 1.867974 0.812032 0.598462 9.062864 0.313235 2.595745 nan nan nan -0.913895 0.855379 2.844975 1.714542 -1.265815 5.837513 2.052007 -1.767842 -0.752563 3.765546 -2.084707 5.387522 2.495498 -0.420794 1.482611 -20.837502 3.179556 2.056152 -60.305886 -17.195129 16.199889 33.088673 -62.617013 -51.391717 14.358305 -8.306030 -60.471264 18.962128 3.175714 -1.404896 57.829726 29.044934 21.845825 -10.808123 54.905897 -26.093310 -2.030720 9.025631 -52.495905 
20.529158 56.948711 95.989113 -59.287784 1.854645 84.263400 -1.548661 1.895255 7.268276 1.446012 1.047613 -4.393941 -4.238163 7.945165 -0.846235 nan nan nan -0.296941 -1.673499 4.968718 1.977898 0.801012 0.660196 8.991793 0.325376 2.504244 nan nan nan -0.849897 0.860622 2.866956 1.663945 -1.281857 5.783755 2.045654 -1.686646 -0.718143 3.730768 -1.703513 5.300578 2.486745 0.027245 1.498046 -20.830940 3.049532 2.003883 -60.450944 -17.086797 16.291980 33.049426 -62.595342 -51.320728 15.062310 -7.660561 -59.982474 18.947336 3.176154 -1.343498 57.652726 29.015266 21.696013 -10.658084 55.044679 -25.964647 -2.373023 8.796007 -52.784528 
20.533903 56.918610 95.984848 -59.213788 1.829964 84.339792 -1.599241 1.825727 7.170298 1.429276 1.185161 -4.337037 -4.463479 7.932869 -0.846576 nan nan nan -0.332975 -1.606806 4.867688 1.975242 0.638373 0.725866 9.021968 0.394816 2.440363 nan nan nan -0.840977 0.846367 2.943296 1.653615 -1.250019 5.678884 1.992399 -1.609223 -0.773270 3.880963 -1.141894 5.103636 2.359924 0.259927 1.735561 -20.766422 3.129913 2.085682 -60.590749 -17.228269 16.312222 32.715544 -62.652356 -50.940157 15.123638 -8.700812 -60.579933 18.963105 3.041062 -1.138333 57.675943 29.134070 21.750812 -10.822933 55.057423 -25.922617 -2.923218 8.924662 -53.171724 
